<svg width="24" height="24" viewBox="0 0 24 24" fill="none" xmlns="http://www.w3.org/2000/svg">
<path d="M15.624 6.48828C16.0554 6.48831 16.4827 6.57298 16.8809 6.73633C17.2789 6.8997 17.6405 7.13844 17.9443 7.43945C18.2484 7.74042 18.4891 8.0979 18.6533 8.49023C18.8174 8.88243 18.9023 9.30248 18.9023 9.72656C18.9023 10.1508 18.8175 10.5715 18.6533 10.9639C18.5097 11.307 18.3076 11.6232 18.0557 11.8984L17.9443 12.0137L17.168 12.7822L11.999 17.8994L6.83105 12.7822L6.05469 12.0137C5.44103 11.4058 5.09766 10.5828 5.09766 9.72656C5.09774 8.87028 5.4409 8.04724 6.05469 7.43945C6.66873 6.83144 7.50346 6.4884 8.375 6.48828C9.2467 6.48828 10.0821 6.83134 10.6963 7.43945L11.4717 8.20801C11.764 8.49742 12.2351 8.49742 12.5273 8.20801L13.3037 7.43945C13.6076 7.13841 13.9691 6.89967 14.3672 6.73633C14.7654 6.57295 15.1925 6.48828 15.624 6.48828Z" stroke="#1E2A38" stroke-width="1.5" stroke-linecap="round" stroke-linejoin="round"/>
</svg>

