<svg width="52" height="50" viewBox="0 0 52 50" fill="#D3D3D3" stroke="#1E2A38" stroke-width="2" xmlns="http://www.w3.org/2000/svg">
<path d="M23.1468 3.78114C24.0449 1.01721 27.9551 1.01722 28.8532 3.78115L32.5109 15.0385C32.9125 16.2746 34.0644 17.1115 35.3641 17.1115H47.2008C50.1069 17.1115 51.3153 20.8303 48.9641 22.5385L39.388 29.4959C38.3366 30.2599 37.8966 31.614 38.2982 32.85L41.956 44.1074C42.854 46.8713 39.6906 49.1697 37.3394 47.4615L27.7634 40.5041C26.7119 39.7401 25.2881 39.7401 24.2366 40.5041L14.6606 47.4615C12.3094 49.1697 9.14599 46.8713 10.044 44.1074L13.7018 32.85C14.1034 31.614 13.6634 30.2599 12.612 29.4959L3.03588 22.5385C0.68474 20.8303 1.89307 17.1115 4.79924 17.1115H16.6359C17.9356 17.1115 19.0875 16.2746 19.4891 15.0385L23.1468 3.78114Z"/>
</svg>
