<svg width="40" height="40" viewBox="0 0 40 40" fill="none" xmlns="http://www.w3.org/2000/svg">
<g clip-path="url(#clip0_22802_74555)">
<path d="M28.6836 6C29.8208 6 30.947 6.22155 31.9971 6.65234C33.0472 7.0832 34.0011 7.71466 34.8037 8.50977V8.51074C35.6066 9.30543 36.2437 10.248 36.6777 11.2852C37.1117 12.3223 37.3349 13.4337 37.335 14.5557C37.335 15.6778 37.1118 16.7899 36.6777 17.8271C36.2979 18.7347 35.7624 19.5698 35.0967 20.2969L34.8037 20.6016L32.9443 22.4434L20 35.2588L7.05762 22.4434L5.19824 20.6016C3.57718 18.9964 2.66797 16.8214 2.66797 14.5557C2.66808 12.29 3.57723 10.1148 5.19824 8.50977C6.81965 6.90446 9.02124 6.00098 11.3184 6.00098C13.6153 6.00109 15.8162 6.90459 17.4375 8.50977L19.2969 10.3516C19.6865 10.7373 20.3144 10.7371 20.7041 10.3516L22.5635 8.50977H22.5645C23.367 7.71482 24.3201 7.08314 25.3701 6.65234C26.4202 6.2215 27.5463 6.00002 28.6836 6Z" stroke="#060F42" stroke-width="2" stroke-linecap="round" stroke-linejoin="round"/>
</g>
<defs>
<clipPath id="clip0_22802_74555">
<rect width="40" height="40" fill="white"/>
</clipPath>
</defs>
</svg>
